# xmcd CD database file
#
# Track frame offsets:
#	150
#	24572
#	42607
#	66607
#	86810
#	109992
#	129035
#	148765
#	169095
#	183402
#	209942
#	226275
#	238557
#	260375
#	280022
#	296135
#	313135
#	325812
#	348652
#
# Disc length: 4758 seconds
#
# Revision: 11
# Processed by: cddbd v1.5.1PL0 Copyright (c) Steve Scherf et al.
# Submitted via: CDex 1.51
#
DISCID=33129413
DTITLE=Various Artist - 〜the most relaxing〜 feel2
DYEAR=2001
DGENRE=Easy Listening
TTITLE0=エニグマ/エイジ・オブ・ロンリネス(カーリーの歌)
TTITLE1=アディエマス/聖なる海の歌声
TTITLE2=S.E.N.S./人と時の風の中へ
TTITLE3=エンヤ/オリノコ・フロウ
TTITLE4=シセル・フィーチャリング・ザンフィル/Summer Snow
TTITLE5=サラ・ブライトマン/スカボロー・フェア
TTITLE6=喜多郎/エストレイヤ
TTITLE7=ヴァネッサ・メイ/リトル・スコティッシュ・ファンタジー
TTITLE8=アンドレ・ギャニオン/愛につつまれて
TTITLE9=リーチェ/オギヨディオラ(OST Version)
TTITLE10=coba/ 過ぎ去りし永遠の日々
TTITLE11=小野リサ/ムーンライト・セレナーデ
TTITLE12=高橋アキ/エナジー・フロー
TTITLE13=清家千晶フィーチャリングORIENTA/スミレ〜word of air version〜
TTITLE14=パオラ・フォッリ/アヴェ・マリア
TTITLE15=マドレデウス/海と旋律
TTITLE16=葉加瀬太郎meetsフォーエバー・タンゴ/リベルタンゴ
TTITLE17=タスミン・リトル・アンド・イアン・サザーランド指揮 ニュー・ワールド・フィルハーモニー管弦楽団/シンドラーのリスト
TTITLE18=東儀秀樹/星空につつまれて(TV-Size Edit)
EXTD=YEAR: 2001
EXTT0=
EXTT1=
EXTT2=
EXTT3=
EXTT4=
EXTT5=
EXTT6=
EXTT7=
EXTT8=
EXTT9=
EXTT10=
EXTT11=
EXTT12=
EXTT13=
EXTT14=
EXTT15=
EXTT16=
EXTT17=
EXTT18=
PLAYORDER=
